<svg width="680" height="760" viewBox="0 0 680 760" xmlns="http://www.w3.org/2000/svg" font-family="Arial, Helvetica, sans-serif">
<defs>
<marker id="arrow" viewBox="0 0 10 10" refX="8" refY="5" markerWidth="6" markerHeight="6" orient="auto-start-reverse">
<path d="M2 1L8 5L2 9" fill="none" stroke="#5F5E5A" stroke-width="1.5" stroke-linecap="round" stroke-linejoin="round"/>
</marker>
</defs>

<rect width="680" height="760" fill="#FFFFFF"/>

<!-- User -->
<g>
<rect x="240" y="20" width="200" height="56" rx="8" fill="#F1EFE8" stroke="#5F5E5A" stroke-width="0.5"/>
<text x="340" y="42" text-anchor="middle" font-size="14" font-weight="bold" fill="#2C2C2A">Citizen user</text>
<text x="340" y="60" text-anchor="middle" font-size="12" fill="#5F5E5A">Text, voice, any language</text>
</g>
<line x1="340" y1="76" x2="340" y2="110" stroke="#5F5E5A" stroke-width="1.5" marker-end="url(#arrow)"/>

<!-- Frontend container -->
<rect x="60" y="110" width="560" height="100" rx="16" fill="#EEEDFE" stroke="#534AB7" stroke-width="0.5"/>
<text x="80" y="134" font-size="14" font-weight="bold" fill="#26215C">Frontend (React.js + Tailwind)</text>

<rect x="90" y="150" width="160" height="44" rx="8" fill="#CECBF6" stroke="#534AB7" stroke-width="0.5"/>
<text x="170" y="176" text-anchor="middle" font-size="12" fill="#3C3489">Profile form</text>

<rect x="270" y="150" width="160" height="44" rx="8" fill="#CECBF6" stroke="#534AB7" stroke-width="0.5"/>
<text x="350" y="176" text-anchor="middle" font-size="12" fill="#3C3489">Scheme results</text>

<rect x="450" y="150" width="150" height="44" rx="8" fill="#CECBF6" stroke="#534AB7" stroke-width="0.5"/>
<text x="525" y="176" text-anchor="middle" font-size="12" fill="#3C3489">Chat assistant</text>

<line x1="340" y1="210" x2="340" y2="244" stroke="#5F5E5A" stroke-width="1.5" marker-end="url(#arrow)"/>
<text x="354" y="230" font-size="12" fill="#5F5E5A">REST / JSON</text>

<!-- Backend container -->
<rect x="60" y="244" width="560" height="180" rx="16" fill="#E1F5EE" stroke="#0F6E56" stroke-width="0.5"/>
<text x="80" y="268" font-size="14" font-weight="bold" fill="#04342C">Backend API (FastAPI + Python)</text>

<rect x="90" y="286" width="160" height="50" rx="8" fill="#9FE1CB" stroke="#0F6E56" stroke-width="0.5"/>
<text x="170" y="307" text-anchor="middle" font-size="12" fill="#085041">/api/match</text>
<text x="170" y="323" text-anchor="middle" font-size="11" fill="#085041">eligibility check</text>

<rect x="270" y="286" width="160" height="50" rx="8" fill="#9FE1CB" stroke="#0F6E56" stroke-width="0.5"/>
<text x="350" y="307" text-anchor="middle" font-size="12" fill="#085041">/api/chat</text>
<text x="350" y="323" text-anchor="middle" font-size="11" fill="#085041">conversation</text>

<rect x="450" y="286" width="150" height="50" rx="8" fill="#9FE1CB" stroke="#0F6E56" stroke-width="0.5"/>
<text x="525" y="307" text-anchor="middle" font-size="12" fill="#085041">/api/schemes</text>
<text x="525" y="323" text-anchor="middle" font-size="11" fill="#085041">catalogue</text>

<line x1="170" y1="336" x2="170" y2="368" stroke="#5F5E5A" stroke-width="1.5" marker-end="url(#arrow)"/>
<rect x="90" y="368" width="340" height="44" rx="8" fill="#9FE1CB" stroke="#0F6E56" stroke-width="0.5"/>
<text x="260" y="394" text-anchor="middle" font-size="12" fill="#085041">Eligibility matching engine (rule-based scoring)</text>

<line x1="350" y1="336" x2="525" y2="368" stroke="#5F5E5A" stroke-width="1.5" marker-end="url(#arrow)"/>
<rect x="450" y="368" width="150" height="44" rx="8" fill="#9FE1CB" stroke="#0F6E56" stroke-width="0.5"/>
<text x="525" y="394" text-anchor="middle" font-size="12" fill="#085041">Assistant logic</text>

<line x1="340" y1="424" x2="340" y2="458" stroke="#5F5E5A" stroke-width="1.5" marker-end="url(#arrow)"/>
<text x="354" y="444" font-size="12" fill="#5F5E5A">queries</text>

<!-- Data layer -->
<rect x="60" y="458" width="270" height="80" rx="16" fill="#FAECE7" stroke="#993C1D" stroke-width="0.5"/>
<text x="80" y="482" font-size="14" font-weight="bold" fill="#4A1B0C">Scheme database</text>
<text x="80" y="500" font-size="12" fill="#712B13">MongoDB — eligibility rules,</text>
<text x="80" y="516" font-size="12" fill="#712B13">benefits, application steps</text>

<rect x="350" y="458" width="270" height="80" rx="16" fill="#FAECE7" stroke="#993C1D" stroke-width="0.5"/>
<text x="370" y="482" font-size="14" font-weight="bold" fill="#4A1B0C">AI &amp; accessibility layer</text>
<text x="370" y="500" font-size="12" fill="#712B13">Gemini API, Speech-to-Text,</text>
<text x="370" y="516" font-size="12" fill="#712B13">Text-to-Speech, Translation</text>

<line x1="195" y1="538" x2="195" y2="566" stroke="#5F5E5A" stroke-width="1.5" marker-end="url(#arrow)"/>
<line x1="485" y1="538" x2="485" y2="566" stroke="#5F5E5A" stroke-width="1.5" marker-end="url(#arrow)"/>

<!-- Deployment -->
<rect x="60" y="566" width="270" height="56" rx="12" fill="#FAEEDA" stroke="#854F0B" stroke-width="0.5"/>
<text x="195" y="588" text-anchor="middle" font-size="14" font-weight="bold" fill="#412402">Deployment</text>
<text x="195" y="606" text-anchor="middle" font-size="12" fill="#633806">Vercel (frontend)</text>

<rect x="350" y="566" width="270" height="56" rx="12" fill="#FAEEDA" stroke="#854F0B" stroke-width="0.5"/>
<text x="485" y="588" text-anchor="middle" font-size="14" font-weight="bold" fill="#412402">Deployment</text>
<text x="485" y="606" text-anchor="middle" font-size="12" fill="#633806">Render / AWS (backend)</text>

<line x1="340" y1="622" x2="340" y2="644" stroke="#5F5E5A" stroke-width="1.5" stroke-dasharray="3 3" marker-end="url(#arrow)"/>

<!-- Future scope -->
<rect x="60" y="644" width="560" height="96" rx="16" fill="#F1EFE8" stroke="#5F5E5A" stroke-width="0.5"/>
<text x="80" y="668" font-size="14" font-weight="bold" fill="#2C2C2A">Future: live government portal sync</text>
<text x="80" y="688" font-size="12" fill="#5F5E5A">WhatsApp integration · real-time scheme updates ·</text>
<text x="80" y="704" font-size="12" fill="#5F5E5A">AI-assisted form filling · 20+ regional languages</text>

</svg>
